<?xml version="1.0" encoding="UTF-8"?>
<!DOCTYPE svg PUBLIC "-//W3C//DTD SVG 1.1//EN" "http://www.w3.org/Graphics/SVG/1.1/DTD/svg11.dtd">
<svg version="1.1" xmlns="http://www.w3.org/2000/svg" xmlns:xlink="http://www.w3.org/1999/xlink" x="0px" y="0px" width="512" height="512" viewBox="0, 0, 512, 512" preserveAspectRatio="none">
  <g id="Layer 1">
    <path d="M383.201,237.257 C368.736,330.45 292.038,384.084 198.115,364.51 L198.115,364.51 C132.007,350.729 87.335,300.596 91.416,221.682 L91.416,221.682 C83.696,258.601 88.402,320.381 144.356,368.031 L144.356,368.031 C137.739,368.031 113.885,352.053 96.259,312.784 L96.259,312.784 C111.929,379.95 169.436,414.415 233.015,409.915 L233.015,409.915 C264.573,407.681 294.591,397.892 318.232,379.615 L318.232,379.615 C389.597,324.441 416.948,209.466 366.152,132.348 L366.152,132.348 C374.52,145.74 391.042,186.747 383.201,237.257" fill="rgba(82,110,125,1)"/>
    <path d="M301.576,91.614 C299.907,93.14 299.31,95.821 297.575,98.787 L297.575,98.787 C299.886,98.297 303.729,95.236 312.897,97.034 L312.897,97.034 C322.068,98.831 321.816,106.509 334.363,105.674 L334.363,105.674 C341.928,105.171 390.672,122.401 405.722,184.283 L405.722,184.283 C419.177,239.594 391.657,309.607 368.542,337.784 L368.542,337.784 C365.614,341.354 360.64,346.063 358.146,348.329 L358.146,348.329 C358.146,348.329 401.004,327.684 410.772,265.118 L410.772,265.118 C412.443,290.206 396.853,319.808 381.912,339.502 L381.912,339.502 C457.102,268.4 417.202,141.553 357.143,100.287 L357.143,100.287 C353.327,97.666 351.132,93.8 346.591,92.503 L346.591,92.503 C343.643,91.662 339.099,91.115 333.19,92.659 L333.19,92.659 C333.19,92.659 320.289,96.225 307.898,90.791 L307.898,90.791 C306.807,90.246 305.883,89.992 305.048,89.992 L305.048,89.992 C303.776,89.992 302.709,90.58 301.576,91.614" fill="rgba(82,110,125,1)"/>
    <path d="M154.096,104.305 L138.434,104.997 L151.544,113.593 L147.364,128.701 L159.589,118.888 L172.666,127.534 L167.112,112.874 L179.376,103.11 L163.717,103.861 L158.219,89.18 z" fill="rgba(82,110,125,1)"/>
    <path d="M186.134,234.362 L178.927,233.413 L184.219,238.397 L181.089,244.958 L187.465,241.464 L192.737,246.468 L191.385,239.326 L197.773,235.857 L190.562,234.937 L189.238,227.788 z" fill="rgba(82,110,125,1)"/>
    <path d="M185.568,185.203 L178.343,190.079 L187.054,190.348 L189.458,198.726 L192.406,190.523 L201.118,190.826 L194.227,185.487 L197.208,177.296 L190.001,182.199 L183.131,176.835 z" fill="rgba(82,110,125,1)"/>
    <path d="M158.854,272.227 L140.445,272.279 L155.411,283 L149.772,300.524 L164.591,289.604 L179.516,300.382 L173.71,282.913 L188.572,272.05 L170.163,272.172 L164.425,254.681 z" fill="rgba(82,110,125,1)"/>
    <path d="M126.85,207.775 L111.03,214.137 L127.584,218.226 L128.745,235.237 L137.75,220.756 L154.287,224.909 L143.297,211.871 L152.357,197.424 L136.561,203.848 L125.622,190.768 z" fill="rgba(82,110,125,1)"/>
    <path d="M382.847,350.684 C378.701,358.1 373.948,365.179 368.583,371.772 C353.148,390.74 332.301,405.324 309.072,413.074 C298.674,416.543 290.338,418.549 279.523,420.133 C267.891,421.835 263.61,421.646 252.043,422 C236.254,421.622 219.279,420.462 203.913,416.212 C229.685,416.313 255.505,412.564 279.992,404.45 C288.129,401.753 296.393,398.672 303.905,394.483 C295.756,405.686 274.874,414.517 274.874,414.517 C303.725,407.577 329.947,392.601 353.653,375.093 C363.819,367.585 373.738,359.539 382.81,350.721 z M287.758,88.47 C289.437,88.471 284.02,93.037 280.067,96.143 C271.391,102.205 262.834,104.94 252.433,104.525 C247.18,104.315 241.618,104.377 245.912,109.586 C246.36,110.13 247.779,111.989 248.269,112.25 L288.023,108.109 C294.814,106.241 301.104,92.319 301.104,92.319 C304.33,89.264 307.895,90.791 307.895,90.791 C320.289,96.225 333.19,92.659 333.19,92.659 C339.099,91.115 343.643,91.662 346.592,92.503 C351.13,93.8 353.327,97.666 357.143,100.288 C417.202,141.553 457.102,268.4 381.912,339.502 C396.853,319.808 412.443,290.206 410.772,265.118 C401.006,327.684 358.146,348.329 358.146,348.329 C391.42,300.794 426.838,199.033 365.578,131.465 C427.819,223.301 367.13,348.87 301.013,387.699 C282.335,398.669 253.931,406.261 233.015,408.184 C169.545,414.024 111.929,379.95 96.257,312.784 C113.885,352.055 137.739,368.031 144.356,368.031 C88.402,320.381 86.294,243.879 91.416,221.682 C92.707,262.862 110.708,285.945 110.708,285.945 C66.626,181.497 155.274,124.403 155.274,124.403 C146.402,131.705 134.734,146.303 134.734,146.303 C149.672,130.684 162.576,126.271 162.576,126.271 C97.907,179.474 106.657,236.707 119.148,268.253 C120.856,272.562 122.828,276.826 125.03,280.996 L125.405,286.186 L112.247,291.479 L126.014,294.878 L126.981,309.028 L134.469,296.984 L135.015,297.121 C137.291,300.295 139.699,303.356 142.188,306.287 C163.339,331.216 206.889,343.935 242.637,335.027 C264.194,329.656 286.463,315.71 289.228,293.847 C276.179,307.932 260.191,308.927 243.699,308.965 C232.401,308.991 219.439,315.629 218.388,332.493 C213.012,302.803 228.429,283.34 248.102,275.445 C257.428,271.701 265.044,271.551 270.679,268.148 C274.382,265.909 278.719,263.004 279.762,255.493 C280.133,252.831 279.021,251.225 276.861,249.152 C273.168,245.604 275.28,242.489 274.926,238.029 C274.693,235.083 272.813,235.61 269.738,234.343 C264.168,232.047 264.066,228.323 264.223,220.785 C254.025,222.615 257.529,230.569 263.289,231.734 C261.958,236.312 262.324,243.477 262.692,247.565 C262.76,248.325 262.869,250.72 263.294,251.426 C264.296,253.098 267.387,251.18 269.923,250.088 C270.635,249.78 271.779,249.312 272.561,249.465 C273.588,249.665 273.66,250.83 273.697,252.148 C273.758,254.363 273.404,257.442 273.475,258.854 C273.09,258.025 271.817,256.979 271.636,255.066 C271.371,252.268 271.45,251.883 269.293,252.791 C267.601,253.506 263.958,257.13 262.615,257.328 C260.838,257.588 259.892,255.523 259.812,254.515 C259.286,247.911 261.163,233.969 261.163,233.969 C257.137,232.82 254.641,232.184 254.161,230.269 C253.398,227.223 255.238,223.929 249.384,227.221 C239.526,232.767 174.526,281.076 217.221,231.398 C221.087,226.899 228.696,219.467 233.577,215.26 C243.214,206.954 245.42,200.962 243.077,187.803 C241.638,179.725 241.057,175.617 238.437,165.447 L239.353,164.109 L251.12,167.26 L243.189,159.534 L248.929,150.806 L239.632,155.963 L234.746,151.51 C233.068,145.29 227.465,125.262 226.17,118.739 L207.043,120.113 L214.003,129.369 L201.613,125.514 L194.16,136.136 L193.996,123.163 L181.589,119.358 L193.881,115.19 L193.664,102.216 L201.424,112.616 L213.696,108.403 L207.775,116.776 L224.873,114.938 C224.552,113.692 224.243,112.471 223.947,111.28 C223.053,107.695 223.041,106.577 221.823,104.23 C221.148,102.93 220.081,101.939 220.818,100.413 C221.361,99.293 222.586,98.265 223.422,97.742 C225.622,96.36 228.65,95.723 231.133,95.431 C236.882,94.755 242.794,95.065 248.778,95.376 C259.903,95.954 271.277,96.532 282.321,90.768 C285.465,89.127 287.121,88.47 287.758,88.47 z M286.675,114.391 L253.534,116.772 L252.217,116.887 C254.431,119.345 256.978,122.077 259.458,124.695 L260.597,128.139 L255.934,131.835 L261.661,131.378 L263.383,136.655 L265.182,131.103 L265.59,131.073 C283.346,149.292 303.153,167.7 303.153,167.7 C333.155,155.145 338.987,167.12 316.138,184.675 C321.401,191.636 324.797,199.275 324.797,199.275 C358.75,169.058 325.67,150.431 320.547,149.365 C313.685,140.798 325.944,130.279 333.628,127.719 C329.859,127.109 322.968,129.215 319.827,130.749 C317.673,131.801 316.684,132.709 314.178,132.87 C311.064,133.068 308.616,131.556 306.953,130 C302.88,126.195 302.885,124.472 297.717,124.304 C297.003,124.282 296.3,124.302 295.611,124.322 C293.224,124.393 290.975,124.464 288.84,122.748 C285.268,119.875 286.675,114.391 286.675,114.391 z M271.406,173.536 L270.839,179.268 L265.207,180.478 L270.483,182.789 L269.894,188.517 L273.722,184.214 L278.987,186.544 L276.077,181.575 L279.922,177.286 L274.295,178.518 z M340.376,254.033 L330.601,265.661 L316.543,259.904 L324.582,272.793 L314.764,284.383 L329.506,280.722 L337.494,293.642 L338.568,278.489 L353.323,274.885 L339.245,269.182 z M282.505,261.949 C280.326,267.204 276.569,270.4 271.973,272.751 C261.675,277.507 249.955,278.454 240.382,284.895 C235.31,288.308 232.198,293.041 230.032,298.637 C235.848,292.777 242.822,288.081 250.155,284.322 C255.745,281.457 261.544,279.192 267.804,278.435 C267.804,278.435 248.025,286.499 239.537,299.402 C252.248,299.408 267.446,298.35 275.931,287.452 C279.652,282.673 281.493,276.756 282.177,270.803 C282.396,268.902 282.416,266.984 282.536,265.075 z M355.624,353.681 C349.624,367.038 338.222,376.985 326.661,385.51 C322.074,388.892 317.183,392.046 312.164,394.762 C316.959,381.671 328.521,374.794 339.266,367.077 C346.758,361.696 345.081,362.867 352.342,356.804 z" fill="rgba(82,110,125,1)"/>
  </g>
  <defs/>
</svg>
